<?xml version="1.0" encoding="UTF-8" standalone="no"?><!-- Generator: Gravit.io --><svg xmlns="http://www.w3.org/2000/svg" xmlns:xlink="http://www.w3.org/1999/xlink" style="isolation:isolate" viewBox="0 0 1747.515 1747.757" width="1747.515pt" height="1747.757pt"><defs><clipPath id="_clipPath_EWDT9cuRn93avYyUK7GFODoHM0Q0Xcao"><rect width="1747.515" height="1747.757"/></clipPath></defs><g clip-path="url(#_clipPath_EWDT9cuRn93avYyUK7GFODoHM0Q0Xcao)"><g><path d=" M 849.5 0.093 Q 999.852 -1.759 1113.5 33.093 Q 1358.267 108.326 1511 275.593 Q 1658.767 427.326 1722 663.593 Q 1751.139 771.455 1747 912.593 Q 1729.519 1154.113 1629.5 1313.093 Q 1565.915 1422.008 1477.5 1506.093 Q 1324.523 1657.616 1084.5 1722.093 Q 975.291 1751.884 831.5 1747.093 Q 600.663 1729.93 446.5 1636.093 Q 337.889 1575.705 254 1490.593 Q 163.081 1400.513 101 1281.593 Q 0.824 1112.77 0 844.593 Q 5.724 713.318 40 610.593 Q 114.667 386.26 269.5 242.093 Q 410.831 102.924 624.5 36.093 Q 723.685 4.778 849.5 0.093 Z " fill="rgb(33,143,201)"/><path d=" M 791.5 361.093 C 914.569 357.742 1047.29 374.202 1150 447.593 L 1150 447.593 L 1150 926.593 L 1150 1046.593 Q 1143.139 1097.954 1164.5 1121.093 Q 1182.701 1133.893 1217.5 1130.093 L 1292 1130.593 L 1292 1189.593 Q 1288.943 1236.037 1261.5 1258.093 Q 1226.527 1286.12 1158.5 1281.093 Q 1080.294 1274.8 1043 1227.593 Q 1029.497 1211.096 1020.5 1190.093 Q 1012 1188.593 1009.5 1193.093 L 995.5 1204.093 Q 966.27 1226.864 931.5 1244.093 Q 859.206 1284.8 742.5 1281.093 Q 618.75 1273.344 559 1201.593 Q 504.427 1139.667 508 1019.593 Q 513.361 904.454 576.5 847.093 Q 655.306 777.4 797 770.593 Q 897.543 763.136 1004 761.593 L 1004 593.593 L 1004 550.593 Q 1007.5 538.593 1002.5 535.093 Q 920.465 493.629 793.5 497.093 Q 689.102 502.195 611.5 534.093 Q 594.361 471.733 591 395.593 Q 679.188 366.282 791.5 361.093 Z " fill="rgb(253,253,253)"/><path d=" M 992.5 876.093 L 1004 876.593 L 1004 1035.593 L 1004 1075.593 Q 1007.25 1088.843 1000.5 1092.093 Q 921.392 1148.985 790.5 1154.093 Q 720.696 1153.897 689 1115.593 Q 662.131 1079.462 666 1012.593 Q 667.312 945.906 704.5 915.093 Q 752 882.593 833.5 884.093 L 949 878.593 L 980.5 877.093 C 983.983 878.129 989.875 879.673 992.5 876.093 L 992.5 876.093 Z " fill="rgb(33,143,201)"/></g></g></svg>